<svg xmlns="http://www.w3.org/2000/svg" width="35" height="28" viewBox="0 0 35 28">
  <defs>
    <style>
      .cls-1 {
        fill: #fff;
        fill-rule: evenodd;
      }
    </style>
  </defs>
  <path class="cls-1" d="M13.948,14.7L4.336,25.414a2.509,2.509,0,0,1-3.505.213,2.419,2.419,0,0,1-.218-3.45L12.129,9.346a2.459,2.459,0,0,1,1.889-.825,2.5,2.5,0,0,1,1.87.865l3.323,3.873,6.107-7.3L19.6,1.133,33.84,0,35,14.15l-5.92-5L21.152,18.63a2.5,2.5,0,0,1-1.9.888,2.464,2.464,0,0,1-1.912-.867ZM6,28.014h8.011V19L6,27.556v0.458Zm15.759-6.233A3.983,3.983,0,0,1,19.63,22.94c-1.074.184-2.746-.982-3.6-1.609L16.011,27.99,25,28l0.011-10.006A38.707,38.707,0,0,1,21.759,21.781Zm7.2-8.772-1.954,2.4V28h7.98l-0.033-10.42C33.313,16.22,28.96,13.009,28.96,13.009Z"/>
</svg>
