<svg xmlns="http://www.w3.org/2000/svg" width="35" height="27" viewBox="0 0 35 27">
  <defs>
    <style>
      .cls-1 {
        fill: #fff;
        fill-rule: evenodd;
      }
    </style>
  </defs>
  <path class="cls-1" d="M13.241,22.781c1.3,1.13,2.128.159,2.128,0.159,1.074,0.184,1.746-1.982,2.6-2.61l0.017,6.659L10,27,9.989,18.994A38.722,38.722,0,0,0,13.241,22.781Zm-7.2-6.772,1.954,2.4V27H0.014L0,9Zm7.907-4.572L4.336,0.828A2.526,2.526,0,0,0,.831.616,2.38,2.38,0,0,0,.613,4.034L12.129,16.743a2.47,2.47,0,0,0,1.889.817,2.512,2.512,0,0,0,1.87-.857l3.323-3.836L25.317,20.1,19.6,24.878,33.84,26,35,11.984l-5.92,4.954L21.152,7.548a2.506,2.506,0,0,0-1.9-.88,2.475,2.475,0,0,0-1.912.859Z"/>
</svg>
