<svg xmlns="http://www.w3.org/2000/svg" width="18" height="20" viewBox="0 0 18 20">
  <defs>
    <style>
      .cls-1 {
        fill: #7F9CA7;
        fill-rule: evenodd;
      }
    </style>
  </defs>
  <path class="cls-1" d="M10.159,2.6V1.8h0.668a0.526,0.526,0,0,0,.533-0.517V0.518A0.527,0.527,0,0,0,10.827,0H6.906a0.528,0.528,0,0,0-.533.518V1.281a0.527,0.527,0,0,0,.533.517H7.574V2.63A8.823,8.823,0,0,0-.007,11.26a8.873,8.873,0,0,0,9,8.74,8.874,8.874,0,0,0,9-8.74A8.832,8.832,0,0,0,10.159,2.6ZM8.994,17.737A6.575,6.575,0,0,1,2.325,11.26,6.574,6.574,0,0,1,8.994,4.784a6.574,6.574,0,0,1,6.669,6.476A6.574,6.574,0,0,1,8.994,17.737ZM8.935,7.23a0.818,0.818,0,1,0-.842-0.817A0.831,0.831,0,0,0,8.935,7.23Zm4.345-.269L9.788,10.352a1.243,1.243,0,0,0-.794-0.283,1.192,1.192,0,1,0,1.228,1.191,1.166,1.166,0,0,0-.292-0.77L13.423,7.1Z"/>
</svg>
